<svg width="165" height="55" viewBox="0 0 165 55" fill="none" xmlns="http://www.w3.org/2000/svg">
<path d="M48.1906 21.5388H32.4362V26.185H43.6081C43.056 32.7004 37.6026 35.48 32.4553 35.48C25.8697 35.48 20.1218 30.3288 20.1218 23.1096C20.1218 16.0766 25.6007 10.659 32.4693 10.659C37.7697 10.659 40.8922 14.0174 40.8922 14.0174L44.1653 10.6488C44.1653 10.6488 39.9653 6 32.3036 6C22.547 6 15 14.1857 15 23.0267C15 31.6893 22.0994 40.1376 32.5522 40.1376C41.7452 40.1376 48.4749 33.8772 48.4749 24.6205C48.4749 22.6659 48.1906 21.5375 48.1906 21.5375V21.5388Z" fill="#2D3B40"/>
<path fill-rule="evenodd" clip-rule="evenodd" d="M49.9985 29.0551C49.9985 23.1976 54.6295 18.174 61.0939 18.174C66.407 18.174 72.1702 21.9162 72.1702 29.1838C72.1702 35.5233 67.2167 40.1172 61.1704 40.1172C54.4918 40.1172 49.9985 35.0005 49.9985 29.0551ZM67.3493 29.1545C67.3493 25.0377 64.338 22.4839 61.1583 22.4836C61.1585 22.4836 61.1587 22.4836 61.159 22.4836H61.1577C61.1579 22.4836 61.1581 22.4836 61.1583 22.4836C57.5872 22.4839 54.8424 25.3233 54.8424 29.1226C54.8424 33.0051 57.6207 35.8102 61.1437 35.8102C64.3504 35.8102 67.3493 33.1836 67.3493 29.1545Z" fill="#2D3B40"/>
<path fill-rule="evenodd" clip-rule="evenodd" d="M74.1312 29.0551C74.1312 23.1976 78.7622 18.174 85.2266 18.174C90.5397 18.174 96.3029 21.9162 96.3029 29.1838C96.3029 35.5233 91.3494 40.1172 85.3031 40.1172C78.6245 40.1172 74.1312 35.0005 74.1312 29.0551ZM91.482 29.1545C91.482 25.0377 88.4707 22.4839 85.291 22.4836C85.2912 22.4836 85.2914 22.4836 85.2917 22.4836H85.2904C85.2906 22.4836 85.2908 22.4836 85.291 22.4836C81.7187 22.4839 78.9751 25.3233 78.9751 29.1226C78.9751 33.0051 81.7534 35.8102 85.2764 35.8102C88.4831 35.8102 91.482 33.1836 91.482 29.1545Z" fill="#2D3B40"/>
<path fill-rule="evenodd" clip-rule="evenodd" d="M98.3009 29.1481C98.3009 23.3506 102.965 18.1854 108.898 18.1854C111.48 18.1854 113.425 19.1787 114.848 20.7036V18.8446H119.477V38.5604C119.477 46.3075 114.981 50 109.081 50C103.688 50 100.658 46.7015 99.1539 43.5381L103.396 41.776C103.985 43.19 105.674 45.6814 109.047 45.6814C112.537 45.6814 114.848 43.4157 114.848 39.6289V37.4664C113.614 38.8906 111.941 40.1325 108.794 40.1325C103.707 40.1325 98.3009 35.7528 98.3009 29.1481ZM115.222 29.1711C115.222 24.9558 112.235 22.4861 109.327 22.4861C106.213 22.4861 103.156 24.9992 103.156 29.2119C103.156 33.2665 106.1 35.8191 109.262 35.8191C112.242 35.8191 115.222 33.4577 115.222 29.1711Z" fill="#2D3B40"/>
<path fill-rule="evenodd" clip-rule="evenodd" d="M129.757 29.1163C129.757 22.5856 134.456 18.1587 140.053 18.1587V18.16C144.468 18.16 147.802 21.0849 149.232 24.5887L150 26.3775L135.201 32.4824C136.084 34.1182 137.511 35.8077 140.613 35.8077C143.376 35.8077 145.031 34.3146 146.022 32.7871L149.837 35.3104C148.126 37.5863 145.261 40.1262 140.59 40.1262C134.995 40.1262 129.757 36.027 129.757 29.1163ZM144.33 24.7225C143.713 23.445 142.262 22.379 140.245 22.379H140.246C137.051 22.379 134.02 25.6495 134.446 28.8281L144.33 24.7225Z" fill="#2D3B40"/>
<path d="M122.701 39.4746H127.563V7.13477H122.701V39.4746Z" fill="#2D3B40"/>
</svg>
