<svg width="165" height="55" viewBox="0 0 165 55" fill="none" xmlns="http://www.w3.org/2000/svg">
<path fill-rule="evenodd" clip-rule="evenodd" d="M60.3148 19.6719V36.7774H65.096V23.7861H68.8036C70.0302 23.7861 70.904 24.0985 71.4974 24.7402C72.2459 25.553 72.551 26.8661 72.551 29.2648V36.7794H77.1861V27.3268C77.1861 20.5835 72.9616 19.6739 68.8364 19.6739H60.3178L60.3148 19.6719ZM105.244 36.7843V19.6986V19.6917H111.898C115.674 19.6917 118.205 20.1564 119.962 22.5492C120.937 23.884 121.496 26.0276 121.496 28.4283C121.496 31.0485 120.836 33.4443 119.814 34.5359C118.367 36.0922 117.03 36.7843 112.933 36.7843H105.244ZM86.817 33.2386L90.7732 19.6986L90.7722 19.6976H95.613L90.1559 36.7833H83.3221L77.9087 19.6976H83.0259L86.817 33.2386ZM123.703 36.7843H128.444V19.6986H123.703V36.7843ZM130.372 36.7784L136.992 19.7025H143.323L150 36.7784H144.923L143.923 33.7607H136.096L135.048 36.7784H130.372ZM142.939 30.8181L140.071 22.8171L140.07 22.8191L137.108 30.8181H142.939ZM109.948 23.4163H111.985C114.941 23.4163 116.854 24.7709 116.854 28.276C116.854 31.7861 114.941 33.1407 111.985 33.1407H109.948V23.4203V23.4163ZM97.6119 36.7774L97.6099 19.6926H102.353V36.7774H97.6119Z" fill="#2D3B40"/>
<path fill-rule="evenodd" clip-rule="evenodd" d="M29.9499 15.0069V18.6416C21.9382 19.2971 15 26.2026 15 26.2026C15 26.2026 18.9293 37.7671 29.9499 38.8251V36.7299C30.4389 36.7991 30.9468 36.8288 31.4757 36.8288C38.0838 36.8288 42.863 33.3978 47.4911 29.334C47.8336 29.6172 48.6518 30.0766 49.5092 30.558L49.5093 30.558C50.568 31.1524 51.6867 31.7805 52.0436 32.152C47.6442 35.8994 37.39 38.925 31.577 38.925C31.0174 38.925 30.4777 38.8913 29.9499 38.836V42H55.0664V15.0069H29.9499ZM29.9499 34.4756C30.5224 34.5794 31.1317 34.6407 31.7828 34.6407C38.883 34.6407 45.6989 26.2026 45.6989 26.2026C45.6989 26.2026 39.7657 18.2866 30.6556 18.5991C30.42 18.608 30.1844 18.6218 29.9499 18.6416V20.6112C30.1825 20.5914 30.417 20.5815 30.6556 20.5716C37.2061 20.364 41.5032 26.2966 41.5032 26.2966C41.5032 26.2966 36.8612 32.854 31.8862 32.854C31.1705 32.854 30.5274 32.7353 29.9499 32.5376V25.1713H29.9399C27.3823 24.8629 25.3834 27.2873 25.3834 27.2873C25.3834 27.2873 26.5036 31.3807 29.9499 32.5673V34.4756ZM29.9499 20.6152C22.748 21.1753 19.125 26.5725 19.0935 26.6196C19.1212 26.7095 21.9031 35.6959 29.9499 36.7289V34.4756C23.8367 33.3681 22.1409 26.9017 22.1409 26.9017C22.1409 26.9017 25.0762 23.5893 29.9499 23.0554V25.1516C32.3389 25.4453 32.9388 26.4699 34.2668 28.7381C34.356 28.8905 34.4486 29.0486 34.5452 29.2124L37.9546 26.2857C37.9546 26.2857 35.4666 22.9635 31.2719 22.9635C30.8146 22.9635 30.3773 22.9961 29.9499 23.0426V20.6152Z" fill="#2D3B40"/>
</svg>
